<svg width="50" height="50" viewBox="0 0 50 50" fill="none" xmlns="http://www.w3.org/2000/svg">
<path d="M28.3325 36.9498C34.668 36.9498 39.9414 31.6886 39.9414 25.3531C39.9414 19.0299 34.6558 13.7565 28.3203 13.7565C24.707 13.7565 21.4478 15.4655 19.3115 18.1144C18.811 18.0167 18.2739 17.9557 17.688 17.9557C14.8682 17.9557 12.7075 19.3107 11.9263 21.2638C11.7676 21.6056 11.6821 21.9718 11.6821 22.2404C11.6821 22.7164 11.9873 23.0216 12.4268 23.0216C12.7808 23.0216 13.0005 22.8629 13.147 22.5211C13.8794 20.4093 15.4175 19.4572 17.6514 19.4572C17.8955 19.4572 18.1274 19.4694 18.3594 19.4938C17.3706 21.1539 16.7847 23.0826 16.7358 25.1212L16.6382 25.1334C12.9639 25.3776 10.9863 27.0255 10.9863 29.7111C10.9863 32.4332 13.1226 34.3009 16.2354 34.3009C17.5537 34.3009 18.8232 33.8859 19.8486 33.1901C21.9727 35.4972 25.0122 36.9498 28.3325 36.9498ZM31.4697 22.2892C31.4697 18.5782 29.2114 16.1124 25.415 15.6974C26.3306 15.4288 27.3071 15.2823 28.3203 15.2823C33.9233 15.2823 38.3911 19.7379 38.4155 25.3531C38.4277 29.8575 35.5225 33.6295 31.4697 34.9357V22.2892ZM18.2739 25.3531C18.2739 22.277 19.6167 19.5304 21.7529 17.6993C22.4487 17.504 23.2178 17.4064 24.0967 17.4064C27.4292 17.4064 29.3945 19.3107 29.3945 22.4845V24.2789L22.8027 24.7184C20.9351 24.8527 19.4214 25.2677 18.2983 25.9635C18.2861 25.756 18.2739 25.5607 18.2739 25.3531ZM23.0713 26.3663L29.3945 25.9147V28.5026C29.3945 31.4811 27.063 33.9225 23.938 34.423C21.3623 33.1901 19.4214 30.8829 18.6401 28.0753C19.519 27.111 21.0327 26.5128 23.0713 26.3663ZM12.7075 29.6622C12.7075 27.8556 14.1357 26.6837 16.7969 26.4762C17.0044 28.6246 17.8223 30.6144 19.0674 32.2623C18.3228 32.6407 17.4683 32.8361 16.5649 32.8361C14.2944 32.8361 12.7075 31.5665 12.7075 29.6622ZM28.3325 35.4239C27.7222 35.4239 27.1118 35.3751 26.5259 35.2653C27.8442 34.5573 28.8574 33.5319 29.3701 32.2989H29.4922V35.3629C29.1138 35.3995 28.7354 35.4239 28.3325 35.4239Z" fill="#F9322C"/>
</svg>
