<svg width="50" height="50" viewBox="0 0 50 50" fill="none" xmlns="http://www.w3.org/2000/svg">
<path d="M13.0125 28.7101C13.2933 29.0031 13.7205 29.0031 14.0135 28.7101L16.162 26.5495C24.5604 18.1633 28.1859 14.6721 29.7118 16.1979C30.847 17.321 28.4788 20.1652 24.9388 24.34C21.7161 28.1364 18.2005 32.0549 20.5321 34.4108C22.4242 36.3151 25.5614 34.1789 29.0282 30.7609C31.7015 28.0998 33.6546 26.3542 34.3748 27.0744C34.9608 27.6481 34.2772 28.7346 33.2518 30.5412C32.0677 32.5798 30.6883 34.6305 31.9823 35.9245C32.971 36.9133 34.7411 36.3395 36.9383 34.0324C37.2801 33.6784 37.2923 33.2512 36.9994 32.9582C36.7064 32.6652 36.2791 32.6774 35.974 32.9704C34.3138 34.5573 33.2762 35.1799 32.8978 34.8014C32.495 34.3864 32.9954 33.4587 34.3138 31.298C35.974 28.5759 36.45 27.111 35.4124 26.0856C34.033 24.7062 31.9334 25.8903 27.9784 29.7233C24.3895 33.1779 22.4852 34.3132 21.5453 33.3976C20.41 32.2868 21.9115 29.9797 26.0008 25.2678C30.9813 19.5305 32.5194 16.9792 30.7127 15.1847C28.4056 12.8776 25.891 14.8063 15.161 25.5363L13.0125 27.6847C12.7196 27.9777 12.7318 28.4172 13.0125 28.7101Z" fill="#F9322C"/>
</svg>
