<svg width="50" height="50" viewBox="0 0 50 50" fill="none" xmlns="http://www.w3.org/2000/svg">
<path d="M21.0332 38.9396C21.4848 39.0739 21.9487 38.8176 22.083 38.3171L29.5048 12.8532C29.6391 12.3649 29.4194 11.9011 28.9555 11.7668C28.5039 11.6325 28.04 11.8889 27.9057 12.3893L20.4838 37.8532C20.3496 38.3415 20.5693 38.7932 21.0332 38.9396ZM32.7031 34.5207L42.0903 26.0246C42.5175 25.6462 42.5053 25.048 42.0903 24.6574L32.7031 16.1735C32.3125 15.8195 31.7876 15.8317 31.4702 16.1857C31.1528 16.5519 31.2016 17.0646 31.5678 17.3942L40.3447 25.341L31.5678 33.2878C31.2016 33.6296 31.1528 34.1423 31.4702 34.4963C31.7876 34.8625 32.3125 34.8625 32.7031 34.5207ZM17.2978 34.5329C17.6762 34.8869 18.2011 34.8747 18.5185 34.5207C18.8359 34.1545 18.7871 33.6418 18.4209 33.3L9.644 25.3654L18.4209 17.4186C18.7871 17.0768 18.8359 16.5641 18.5185 16.1979C18.2011 15.8439 17.6762 15.8439 17.2978 16.1857L7.89839 24.6696C7.47115 25.0602 7.48335 25.6584 7.89839 26.049L17.2978 34.5329Z" fill="#F9322C"/>
</svg>
