<svg width="50" height="50" viewBox="0 0 50 50" fill="none" xmlns="http://www.w3.org/2000/svg">
<path d="M14.1358 30.0407C13.4156 30.0407 13.2203 30.5412 13.6231 31.1149L16.2842 34.8991C16.626 35.3874 17.1021 35.3752 17.4439 34.8991L20.105 31.1027C20.4957 30.5412 20.3004 30.0407 19.5923 30.0407H17.6758V20.7512C17.6758 18.5661 18.982 17.1013 20.8863 17.1013C22.7906 17.1013 24.1822 18.5173 24.1822 20.7512V29.1496C24.1822 32.3845 26.1963 34.5207 29.1138 34.5207C32.0191 34.5207 33.96 32.3845 33.96 29.1496V19.9333H35.8643C36.5723 19.9333 36.7798 19.445 36.377 18.8713L33.7159 15.0749C33.3863 14.5988 32.898 14.5866 32.5562 15.0749L29.8951 18.8591C29.4922 19.445 29.6876 19.9333 30.4078 19.9333H32.3121V29.2229C32.3121 31.4079 31.0181 32.885 29.1138 32.885C27.1973 32.885 25.8179 31.4567 25.8179 29.2229V20.8244C25.8179 17.5896 23.7916 15.4533 20.8863 15.4533C17.981 15.4533 16.0401 17.5896 16.0401 20.8244V30.0407H14.1358Z" fill="#F9322C"/>
</svg>
