<svg width="50" height="50" viewBox="0 0 50 50" fill="none" xmlns="http://www.w3.org/2000/svg">
<path d="M20.8125 14.4523C20.8125 14.6843 20.9468 14.8185 21.1665 14.8552C24.2305 15.3434 24.1694 15.2702 24.5845 18.2609C24.6211 18.4929 24.7676 18.6271 24.9995 18.6271C25.2192 18.6271 25.3657 18.4929 25.4023 18.2609C25.8174 15.2702 25.7686 15.3434 28.8203 14.8552C29.0522 14.8185 29.1865 14.6843 29.1865 14.4523C29.1865 14.2204 29.0522 14.0739 28.8203 14.0495C25.7686 13.549 25.8174 13.6223 25.4023 10.6437C25.3657 10.4118 25.2192 10.2775 24.9995 10.2775C24.7676 10.2775 24.6211 10.4118 24.5845 10.6437C24.1694 13.6223 24.2305 13.549 21.1665 14.0495C20.9468 14.0739 20.8125 14.2204 20.8125 14.4523ZM35.2534 21.4836C35.9248 21.4836 36.4863 20.9221 36.4863 20.2507C36.4863 19.5793 35.9248 19.0178 35.2534 19.0178C34.582 19.0178 34.0327 19.5793 34.0327 20.2507C34.0327 20.9221 34.582 21.4836 35.2534 21.4836ZM14.7334 21.4836C15.4048 21.4836 15.9663 20.9221 15.9663 20.2507C15.9663 19.5793 15.4048 19.0178 14.7334 19.0178C14.062 19.0178 13.5005 19.5793 13.5005 20.2507C13.5005 20.9221 14.062 21.4836 14.7334 21.4836ZM24.9995 26.5861C25.6709 26.5861 26.2202 26.0246 26.2202 25.3532C26.2202 24.6818 25.6709 24.1203 24.9995 24.1203C24.3281 24.1203 23.7666 24.6818 23.7666 25.3532C23.7666 26.0246 24.3281 26.5861 24.9995 26.5861ZM11.4619 30.6877C11.4619 30.9196 11.5962 31.0539 11.8159 31.0905C14.8799 31.5788 14.8311 31.5056 15.2461 34.4963C15.2705 34.7282 15.4292 34.8625 15.6489 34.8625C15.8687 34.8625 16.0151 34.7282 16.0518 34.4963C16.4668 31.5056 16.418 31.5788 19.4697 31.0905C19.7017 31.0539 19.8359 30.9196 19.8359 30.6877C19.8359 30.4557 19.7017 30.3093 19.4697 30.2849C16.418 29.7844 16.4668 29.8576 16.0518 26.8791C16.0151 26.6472 15.8687 26.5129 15.6489 26.5129C15.4292 26.5129 15.2705 26.6472 15.2461 26.8791C14.8311 29.8576 14.8799 29.7844 11.8159 30.2849C11.5962 30.3093 11.4619 30.4557 11.4619 30.6877ZM30.1631 30.6877C30.1631 30.9196 30.2974 31.0539 30.5171 31.0905C33.5688 31.5788 33.52 31.5056 33.9351 34.4963C33.9717 34.7282 34.1182 34.8625 34.3501 34.8625C34.5698 34.8625 34.7163 34.7282 34.7529 34.4963C35.168 31.5056 35.1191 31.5788 38.1709 31.0905C38.3906 31.0539 38.5249 30.9196 38.5249 30.6877C38.5249 30.4557 38.3906 30.3093 38.1709 30.2849C35.1191 29.7844 35.168 29.8576 34.7529 26.8791C34.7163 26.6472 34.5698 26.5129 34.3501 26.5129C34.1182 26.5129 33.9717 26.6472 33.9351 26.8791C33.52 29.8576 33.5688 29.7844 30.5171 30.2849C30.2974 30.3093 30.1631 30.4557 30.1631 30.6877ZM24.9995 38.1462C25.6709 38.1462 26.2202 37.5969 26.2202 36.9255C26.2202 36.2419 25.6709 35.6804 24.9995 35.6804C24.3281 35.6804 23.7666 36.2419 23.7666 36.9255C23.7666 37.5969 24.3281 38.1462 24.9995 38.1462Z" fill="#F9322C"/>
</svg>
