<svg width="50" height="50" viewBox="0 0 50 50" fill="none" xmlns="http://www.w3.org/2000/svg">
<path d="M16.624 13.4391H32.5298C32.481 12.6457 32.0171 12.1818 31.1626 12.1818H18.0034C17.1489 12.1818 16.6729 12.6457 16.624 13.4391ZM14.2803 16.5641H34.8857C34.7637 15.7219 34.3364 15.2214 33.4087 15.2214H15.7573C14.8296 15.2214 14.4023 15.7219 14.2803 16.5641ZM15.1714 38.8542H33.9824C36.3628 38.8542 37.5835 37.6335 37.5835 35.2775V22.2282C37.5835 19.8845 36.3628 18.6638 33.9824 18.6638H15.1714C12.7788 18.6638 11.5703 19.8723 11.5703 22.2282V35.2775C11.5703 37.6457 12.7788 38.8542 15.1714 38.8542ZM15.1958 37.3405C13.8286 37.3405 13.084 36.6081 13.084 35.2043V22.3137C13.084 20.8976 13.8286 20.1774 15.1958 20.1774H33.958C35.3008 20.1774 36.0698 20.8976 36.0698 22.3137V35.2043C36.0698 36.6081 35.3008 37.3405 33.958 37.3405H15.1958ZM30.2715 29.0641C31.8706 29.0641 33.189 27.758 33.189 26.1345C33.189 24.5109 31.8706 23.2048 30.2715 23.2048C28.6479 23.2048 27.3418 24.5109 27.3418 26.1345C27.3418 27.758 28.6479 29.0641 30.2715 29.0641ZM16.5874 25.3898H24.7905C25.1689 25.3898 25.4619 25.0847 25.4619 24.7184C25.4619 24.34 25.1689 24.0471 24.7905 24.0471H16.5874C16.209 24.0471 15.916 24.34 15.916 24.7184C15.916 25.0847 16.209 25.3898 16.5874 25.3898ZM16.5874 28.4904H22.3003C22.6665 28.4904 22.9717 28.1974 22.9717 27.8312C22.9717 27.4528 22.6665 27.1599 22.3003 27.1599H16.5874C16.209 27.1599 15.916 27.4528 15.916 27.8312C15.916 28.1974 16.209 28.4904 16.5874 28.4904Z" fill="#F9322C"/>
</svg>
