<svg width="230" height="40" viewBox="0 0 230 40" fill="none" xmlns="http://www.w3.org/2000/svg">
<path d="M52.6214 9.33081H49.1721V30.2484H59.1001V27.1705H52.6214V9.33081Z" fill="#F9322C"/>
<path d="M71.278 18.2058C70.8379 17.5085 70.2132 16.9609 69.4034 16.5623C68.5938 16.1639 67.7787 15.9646 66.959 15.9646C65.8986 15.9646 64.9292 16.1589 64.0493 16.5473C63.1693 16.9357 62.4146 17.4691 61.7847 18.1461C61.1548 18.8235 60.6646 19.6055 60.315 20.4916C59.9647 21.3784 59.79 22.31 59.79 23.2858C59.79 24.2822 59.9647 25.2184 60.315 26.0947C60.6646 26.9716 61.1548 27.7486 61.7847 28.4256C62.4146 29.103 63.1691 29.6358 64.0493 30.0242C64.9289 30.4126 65.8986 30.6069 66.959 30.6069C67.7787 30.6069 68.5938 30.4076 69.4034 30.0094C70.2132 29.6112 70.8381 29.0634 71.278 28.3659V30.2486H74.5473V16.3233H71.278V18.2058ZM70.9782 24.989C70.7782 25.527 70.4983 25.9951 70.1384 26.3935C69.7784 26.7921 69.3435 27.1108 68.8336 27.3498C68.3235 27.5889 67.7584 27.7083 67.1387 27.7083C66.5187 27.7083 65.9587 27.5889 65.4589 27.3498C64.9589 27.1106 64.5293 26.7921 64.1694 26.3935C63.8093 25.9951 63.5342 25.527 63.3445 24.989C63.154 24.4512 63.0596 23.8833 63.0596 23.2858C63.0596 22.6881 63.154 22.1203 63.3445 21.5825C63.534 21.0447 63.8093 20.5768 64.1694 20.1782C64.5293 19.78 64.9591 19.4609 65.4589 19.2219C65.9587 18.9828 66.5187 18.8634 67.1387 18.8634C67.7584 18.8634 68.3235 18.9828 68.8336 19.2219C69.3435 19.4611 69.7784 19.78 70.1384 20.1782C70.4983 20.5768 70.7782 21.0447 70.9782 21.5825C71.1779 22.1203 71.2782 22.6881 71.2782 23.2858C71.278 23.8833 71.1779 24.4512 70.9782 24.989Z" fill="#F9322C"/>
<path d="M97.8527 18.2058C97.4126 17.5085 96.7879 16.9609 95.9781 16.5623C95.1685 16.1639 94.3534 15.9646 93.5337 15.9646C92.4733 15.9646 91.5039 16.1589 90.624 16.5473C89.744 16.9357 88.9893 17.4691 88.3594 18.1461C87.7295 18.8235 87.2393 19.6055 86.8897 20.4916C86.5394 21.3784 86.3647 22.31 86.3647 23.2858C86.3647 24.2822 86.5394 25.2184 86.8897 26.0947C87.2393 26.9716 87.7295 27.7486 88.3594 28.4256C88.9893 29.103 89.7438 29.6358 90.624 30.0242C91.5036 30.4126 92.4733 30.6069 93.5337 30.6069C94.3534 30.6069 95.1685 30.4076 95.9781 30.0094C96.7879 29.6112 97.4128 29.0634 97.8527 28.3659V30.2486H101.122V16.3233H97.8527V18.2058ZM97.5527 24.989C97.3527 25.527 97.0728 25.9951 96.7129 26.3935C96.3529 26.7921 95.918 27.1108 95.4081 27.3498C94.898 27.5889 94.3329 27.7083 93.7132 27.7083C93.0932 27.7083 92.5332 27.5889 92.0334 27.3498C91.5334 27.1106 91.1038 26.7921 90.7439 26.3935C90.3838 25.9951 90.1087 25.527 89.919 24.989C89.7285 24.4512 89.6341 23.8833 89.6341 23.2858C89.6341 22.6881 89.7285 22.1203 89.919 21.5825C90.1085 21.0447 90.3838 20.5768 90.7439 20.1782C91.1038 19.78 91.5336 19.4609 92.0334 19.2219C92.5332 18.9828 93.0932 18.8634 93.7132 18.8634C94.3329 18.8634 94.898 18.9828 95.4081 19.2219C95.918 19.4611 96.3529 19.78 96.7129 20.1782C97.0728 20.5768 97.3527 21.0447 97.5527 21.5825C97.7524 22.1203 97.8527 22.6881 97.8527 23.2858C97.8527 23.8833 97.7524 24.4512 97.5527 24.989Z" fill="#F9322C"/>
<path d="M136.987 9.33081H133.718V30.2484H136.987V9.33081Z" fill="#F9322C"/>
<path d="M77.1272 30.2485H80.3965V19.5282H86.0055V16.3235H77.1272V30.2485Z" fill="#F9322C"/>
<path d="M114.23 16.3235L110.121 26.987L106.012 16.3235H102.7L108.066 30.2485H112.175L117.541 16.3235H114.23Z" fill="#F9322C"/>
<path d="M124.671 15.9651C120.668 15.9651 117.499 19.2429 117.499 23.2859C117.499 27.7554 120.566 30.6068 125.09 30.6068C127.622 30.6068 129.239 29.6422 131.214 27.5415L129.005 25.8389C129.004 25.8406 127.338 28.0196 124.851 28.0196C121.96 28.0196 120.743 25.6974 120.743 24.496H131.589C132.159 19.8957 129.123 15.9651 124.671 15.9651ZM120.751 22.0757C120.776 21.8077 121.153 18.5521 124.645 18.5521C128.137 18.5521 128.562 21.8073 128.586 22.0757H120.751Z" fill="#F9322C"/>
<path d="M39.223 9.1672C39.2179 9.14883 39.2077 9.13276 39.2012 9.11502C39.189 9.08226 39.1786 9.04908 39.1612 9.01902C39.1494 8.99878 39.1325 8.98229 39.1186 8.96372C39.1004 8.9393 39.0849 8.91321 39.0631 8.89172C39.0453 8.87377 39.0225 8.86083 39.0024 8.84518C38.9795 8.82744 38.9592 8.8072 38.9339 8.79259C38.9339 8.79259 38.9337 8.79259 38.9335 8.79238C38.9333 8.79238 38.9333 8.79217 38.933 8.79196L31.4656 4.50869C31.2735 4.3985 31.0368 4.3985 30.8447 4.50869L23.3774 8.79154C23.3772 8.79154 23.3772 8.79175 23.377 8.79196C23.3768 8.79196 23.3766 8.79196 23.3766 8.79217C23.3512 8.80678 23.3307 8.82702 23.3081 8.84476C23.288 8.86041 23.2651 8.87356 23.2473 8.8913C23.2258 8.9128 23.2101 8.93888 23.1918 8.9633C23.178 8.98187 23.161 8.99857 23.1493 9.0186C23.1319 9.04866 23.1214 9.08205 23.1093 9.1146C23.1028 9.13234 23.0925 9.14841 23.0875 9.16678C23.0735 9.21874 23.0659 9.27321 23.0659 9.32873V17.4635L16.8432 21.0328V5.11871C16.8432 5.0634 16.8356 5.00893 16.8216 4.95676C16.8166 4.9384 16.8063 4.92233 16.7998 4.90459C16.7877 4.87182 16.7772 4.83864 16.7598 4.80859C16.7481 4.78834 16.7311 4.77186 16.7173 4.75328C16.6991 4.72886 16.6836 4.70278 16.6618 4.68128C16.644 4.66333 16.6211 4.65039 16.601 4.63474C16.5782 4.617 16.5579 4.59676 16.5325 4.58215C16.5325 4.58215 16.5323 4.58215 16.5321 4.58194C16.5319 4.58194 16.5319 4.58173 16.5317 4.58153L9.06444 0.298464C8.87234 0.188272 8.63563 0.188272 8.44354 0.298464L0.976288 4.58153C0.976079 4.58153 0.976079 4.58173 0.97587 4.58194C0.97566 4.58194 0.975451 4.58194 0.975451 4.58215C0.950104 4.59676 0.929573 4.617 0.906949 4.63474C0.886839 4.65039 0.864008 4.66354 0.846202 4.68128C0.824626 4.70278 0.808915 4.72886 0.790691 4.75328C0.776865 4.77186 0.759897 4.78855 0.748166 4.80859C0.730779 4.83864 0.720307 4.87203 0.708157 4.90459C0.701663 4.92233 0.691398 4.9384 0.68637 4.95676C0.672335 5.00873 0.664795 5.0632 0.664795 5.11871V30.5984C0.664795 30.8202 0.783778 31.0249 0.976707 31.1358L15.911 39.7017C15.9437 39.7202 15.9789 39.7315 16.0137 39.7438C16.03 39.7497 16.0451 39.7593 16.0618 39.7637C16.114 39.7774 16.1678 39.7845 16.2215 39.7845C16.2751 39.7845 16.3287 39.7776 16.3811 39.7637C16.3955 39.7599 16.4087 39.7513 16.423 39.7463C16.4598 39.7336 16.4971 39.7215 16.5317 39.7017L31.466 31.1358C31.6589 31.0251 31.7779 30.8202 31.7779 30.5984V22.4636L38.9332 18.3594C39.1262 18.2488 39.2452 18.0439 39.2452 17.822V9.32873C39.2445 9.27363 39.2372 9.21916 39.223 9.1672ZM16.2196 29.8855L10.009 26.3838L16.5313 22.6427C16.5313 22.6427 16.5313 22.6427 16.5315 22.6425L23.6881 18.5376L29.9041 22.103L25.3434 24.6967L16.2196 29.8855ZM30.533 13.9705V21.033L27.9197 19.5342L24.3102 17.4639V10.4014L26.9235 11.9003L30.533 13.9705ZM31.1551 5.76149L37.3752 9.32914L31.1551 12.8968L24.9351 9.32914L31.1551 5.76149ZM11.9892 23.817L9.37593 25.3159V9.7601L12.9854 7.68984L15.5987 6.19099V21.7465L11.9892 23.817ZM8.75357 1.55106L14.9736 5.11871L8.75357 8.68636L2.53354 5.11871L8.75357 1.55106ZM1.90867 6.1912L4.52191 7.69005L8.13142 9.76031V26.3883C8.13142 26.3888 8.13163 26.389 8.13163 26.3894C8.13163 26.3898 8.13142 26.3902 8.13142 26.3906C8.13142 26.4144 8.13812 26.4368 8.14085 26.4601C8.14441 26.4906 8.14525 26.5215 8.15321 26.5507C8.15342 26.5511 8.15342 26.5518 8.15363 26.5522C8.16033 26.5766 8.17332 26.5985 8.18295 26.6219C8.19364 26.6478 8.20139 26.6751 8.21563 26.6993C8.21584 26.6999 8.21605 26.7006 8.21647 26.7012C8.22925 26.7231 8.24768 26.741 8.26297 26.7613C8.27994 26.7832 8.29419 26.8072 8.31409 26.8268C8.31471 26.8274 8.31514 26.8283 8.31576 26.8289C8.33336 26.8462 8.35556 26.8585 8.37525 26.8738C8.39746 26.8911 8.41757 26.9109 8.44229 26.9253C8.44312 26.9257 8.44417 26.9259 8.44501 26.9264C8.44585 26.9268 8.44648 26.9276 8.44731 26.928L15.5987 30.9602V38.0924L1.90888 30.2402V6.1912H1.90867ZM30.533 30.2402L16.8432 38.0924V30.9588L26.9817 25.1929L30.533 23.1734V30.2402ZM38 17.4639L31.7773 21.033V13.9705L35.3868 11.9003L38 10.4014V17.4639Z" fill="#F9322C"/>
<path d="M154.5 26.06C157.48 26.06 159.58 23.78 159.58 21.02C159.58 18.26 157.48 16 154.5 16H148.58V30H151.18V26.06H154.5ZM151.18 23.82V18.24H154.16C155.88 18.24 156.98 19.48 156.98 21.02C156.98 22.56 155.88 23.82 154.16 23.82H151.18ZM169.252 20.02V21.74C168.752 20.68 167.392 19.78 165.652 19.78C162.692 19.78 160.612 22.14 160.612 25.02C160.612 27.88 162.692 30.24 165.652 30.24C167.392 30.24 168.712 29.3 169.292 28.28V30H171.712V20.02H169.252ZM163.132 25.02C163.132 23.28 164.332 21.86 166.132 21.86C167.792 21.86 169.192 23.1 169.192 25.02C169.192 26.94 167.792 28.16 166.132 28.16C164.332 28.16 163.132 26.76 163.132 25.02ZM180.494 19.94C178.734 19.94 177.394 20.6 176.914 22.18V20.02H174.474V30H176.994V25.56C176.994 23.62 177.934 22.44 179.954 22.44H180.494V19.94ZM182.929 20.02H181.069V22.1H182.929V26.52C182.929 28.82 183.809 30.24 186.169 30.24C186.809 30.24 187.609 30.1 187.929 29.98V27.96C187.589 28.06 187.249 28.14 186.829 28.14C185.849 28.14 185.449 27.68 185.449 26.64V22.1H188.029V20.02H185.449V17.04H182.929V20.02ZM192.482 24.42C192.482 22.98 193.422 21.98 194.802 21.98C196.302 21.98 196.942 23.02 196.942 24.44V30H199.462V24.02C199.462 21.54 198.122 19.78 195.722 19.78C194.162 19.78 192.862 20.56 192.402 21.72V20.02H189.962V30H192.482V24.42ZM212.01 25.86V25.04C212.01 21.96 209.91 19.78 206.77 19.78C203.69 19.78 201.51 21.98 201.51 25C201.51 27.98 203.49 30.24 206.89 30.24C209.27 30.24 211.19 28.86 211.87 27.08H209.53C209.05 27.84 208.11 28.38 206.89 28.38C205.11 28.38 204.15 27.36 203.99 25.86H212.01ZM206.81 21.58C208.43 21.58 209.45 22.66 209.61 24.2H203.97C204.17 22.58 205.25 21.58 206.81 21.58ZM220.181 19.94C218.421 19.94 217.081 20.6 216.601 22.18V20.02H214.161V30H216.681V25.56C216.681 23.62 217.621 22.44 219.641 22.44H220.181V19.94ZM221.078 27.02C221.338 29.28 222.998 30.24 225.078 30.24C227.118 30.24 228.998 28.96 228.998 26.98C228.998 25.54 228.218 24.62 226.618 24.18L224.838 23.68C224.118 23.48 223.758 23.24 223.758 22.62C223.758 21.96 224.278 21.54 225.058 21.54C225.938 21.54 226.358 22.14 226.398 22.76H228.538C228.338 21.02 227.138 19.78 224.998 19.78C223.018 19.78 221.458 20.92 221.458 22.74C221.458 24.34 222.418 25.18 224.138 25.62L225.618 26.02C226.358 26.22 226.698 26.56 226.698 27.2C226.698 28 226.018 28.48 225.058 28.48C223.958 28.48 223.358 27.94 223.218 27.02H221.078Z" fill="#090910"/>
</svg>
